<svg id="Layer_1" preserveAspectRatio="none" viewBox="0 0 1024 800" data-name="Layer 1" xmlns="http://www.w3.org/2000/svg" ><defs><style>.cls-1{fill:#fff;}</style></defs><title>bg</title><path class="cls-1" d="M492.18,474.07l-43.46-43.46-69.27-69.27-15.91-15.91a5.08,5.08,0,0,0-7.07,0L313,388.88l-69.27,69.27-15.91,15.91a5.08,5.08,0,0,0,0,7.07l43.46,43.46,69.27,69.27,15.91,15.91a5.08,5.08,0,0,0,7.07,0L407,566.32,476.27,497l15.91-15.91c4.56-4.56-2.51-11.63-7.07-7.07l-43.46,43.46L372.37,586.8l-15.91,15.91h7.07l-43.46-43.46L250.8,490l-15.91-15.91v7.07l43.46-43.46,69.27-69.27,15.91-15.91h-7.07L399.92,396l69.27,69.27,15.91,15.91C489.66,485.69,496.74,478.62,492.18,474.07Z" transform="translate(-156.03 -62.56)"/><path class="cls-1" d="M529.3,370.47l-56.12-56.12L384.1,225.28l-20.57-20.57a5.08,5.08,0,0,0-7.07,0l-56.12,56.12L211.27,349.9,190.7,370.47a5.08,5.08,0,0,0,0,7.07l56.12,56.12,89.08,89.08,20.57,20.57a5.08,5.08,0,0,0,7.07,0l56.12-56.12,89.08-89.08,20.57-20.57c4.56-4.56-2.51-11.63-7.07-7.07l-56.12,56.12L377,515.67l-20.57,20.57h7.07l-56.12-56.12L218.34,391l-20.57-20.57v7.07l56.12-56.12L343,232.35l20.57-20.57h-7.07l56.12,56.12L501.66,357l20.57,20.57C526.79,382.1,533.86,375,529.3,370.47Z" transform="translate(-156.03 -62.56)"/><path class="cls-1" d="M562.54,263l-67.22-67.22L388.16,88.62,363.54,64a5.08,5.08,0,0,0-7.07,0l-67.22,67.22L182.09,238.36,157.46,263a5.08,5.08,0,0,0,0,7.07l67.22,67.22L331.84,444.44l24.63,24.63a5.08,5.08,0,0,0,7.07,0l67.22-67.22L537.91,294.69l24.63-24.63c4.56-4.56-2.51-11.63-7.07-7.07l-67.22,67.22L381.09,437.37,356.46,462h7.07l-67.22-67.22L189.16,287.62,164.53,263v7.07l67.22-67.22L338.91,95.69l24.63-24.63h-7.07l67.22,67.22L530.84,245.44l24.63,24.63C560,274.62,567.1,267.55,562.54,263Z" transform="translate(-156.03 -62.56)"/><path class="cls-1" d="M504.25,204.71l-47.44-47.44L381.08,81.53,363.54,64a5.08,5.08,0,0,0-7.07,0L309,111.43l-75.73,75.73-17.54,17.54a5.08,5.08,0,0,0,0,7.07l47.44,47.44L338.92,335l17.54,17.54a5.08,5.08,0,0,0,7.07,0L411,305.05l75.73-75.73,17.54-17.54c4.56-4.56-2.51-11.63-7.07-7.07l-47.44,47.44L374,327.88l-17.54,17.54h7.07L316.09,298l-75.73-75.73-17.54-17.54v7.07l47.44-47.44L346,88.6l17.54-17.54h-7.07l47.44,47.44,75.73,75.73,17.54,17.54C501.74,216.33,508.81,209.27,504.25,204.71Z" transform="translate(-156.03 -62.56)"/></svg>
